<?xml version="1.0" encoding="utf-8"?>
<!-- Generator: Adobe Illustrator 21.1.0, SVG Export Plug-In . SVG Version: 6.00 Build 0)  -->
<svg version="1.1" id="Layer_2" xmlns="http://www.w3.org/2000/svg" xmlns:xlink="http://www.w3.org/1999/xlink" x="0px" y="0px"
	 viewBox="0 0 147.6 27.1" style="enable-background:new 0 0 147.6 27.1;" xml:space="preserve">
<style type="text/css">
	.st0{clip-path:url(#SVGID_2_);}
	.st1{fill:#A32422;}
	.st2{fill:#DC382C;}
	.st3{fill:#FFFFFF;}
	.st4{fill:#741113;}
	.st5{fill:#AC2724;}
</style>
<g>
	<g>
		<g>
			<defs>
				<rect id="SVGID_1_" x="0" y="0.9" width="30.6" height="26.2"/>
			</defs>
			<clipPath id="SVGID_2_">
				<use xlink:href="#SVGID_1_"  style="overflow:visible;"/>
			</clipPath>
			<g class="st0">
				<path class="st1" d="M29.4,21.1c-1.6,0.9-10.1,4.3-11.9,5.3c-1.8,1-2.8,0.9-4.2,0.2s-10.4-4.3-12-5.1c-0.8-0.4-1.2-0.7-1.2-1
					v-3.1c0,0,11.7-2.5,13.6-3.2c1.9-0.7,2.5-0.7,4.2-0.1c1.6,0.6,11.2,2.3,12.8,2.9v3C30.6,20.4,30.2,20.7,29.4,21.1L29.4,21.1z"/>
				<path class="st2" d="M29.4,18c-1.6,0.8-10.1,4.3-11.9,5.3c-1.8,0.9-2.8,0.9-4.2,0.3s-10.4-4.3-12-5.1c-1.6-0.8-1.7-1.3-0.1-1.9
					s10.5-4.1,12.4-4.8c1.9-0.7,2.5-0.7,4.2-0.1c1.6,0.6,10,3.9,11.6,4.5C31,16.7,31,17.2,29.4,18L29.4,18z"/>
				<path class="st1" d="M29.4,16.1c-1.6,0.8-10.1,4.3-11.9,5.3c-1.8,0.9-2.8,0.9-4.2,0.3c-1.4-0.7-10.4-4.3-12-5.1
					c-0.8-0.4-1.2-0.7-1.2-1v-3.1c0,0,11.7-2.5,13.6-3.2s2.5-0.7,4.2-0.1c1.6,0.6,11.2,2.3,12.8,2.9V15
					C30.6,15.3,30.2,15.6,29.4,16.1z"/>
				<path class="st2" d="M29.4,13c-1.6,0.9-10.1,4.3-11.9,5.3s-2.8,0.9-4.2,0.3s-10.4-4.3-12-5.1s-1.7-1.3-0.1-1.9
					s10.5-4.1,12.4-4.8s2.5-0.7,4.2-0.1c1.6,0.6,10,4,11.6,4.5S31,12.1,29.4,13L29.4,13z"/>
				<path class="st1" d="M29.4,10.8c-1.6,0.9-10.1,4.3-11.9,5.3c-1.8,0.9-2.8,0.9-4.2,0.2S2.9,12,1.2,11.3c-0.8-0.4-1.2-0.7-1.2-1
					V7.1c0,0,11.7-2.5,13.6-3.2s2.5-0.7,4.2-0.1C19.4,4.4,29,6.1,30.6,6.7v3.1C30.6,10.1,30.2,10.4,29.4,10.8z"/>
				<path class="st2" d="M29.4,7.7c-1.6,0.8-10.1,4.3-11.9,5.3s-2.8,0.9-4.2,0.3S2.9,8.9,1.2,8.2s-1.7-1.3-0.1-1.9
					s10.5-4.1,12.4-4.8s2.5-0.7,4.2-0.1c1.6,0.6,10,3.9,11.6,4.5S31,6.9,29.4,7.7L29.4,7.7z"/>
			</g>
		</g>
		<polygon class="st3" points="15.8,3.3 17.8,2.7 17.3,4 19.3,4.8 16.7,5 16.1,6.5 15.1,4.9 12,4.6 14.3,3.8 13.6,2.5 15.8,3.3
			15.8,3.3 		"/>
		<polygon class="st3" points="15.9,11.7 11,9.6 18.1,8.6 15.9,11.7 15.9,11.7 		"/>
		<path class="st3" d="M9,5.6c2.1,0,3.8,0.7,3.8,1.5S11.1,8.5,9,8.5S5.3,7.8,5.3,7S7,5.6,9,5.6z"/>
		<polygon class="st4" points="22.4,5.2 26.6,6.8 22.5,8.5 22.4,5.2 22.4,5.2 		"/>
		<polygon class="st5" points="22.4,5.2 22.5,8.5 22,8.6 17.8,7 22.4,5.2 22.4,5.2 		"/>
	</g>
	<g>
		<path class="st3" d="M97.6,0.7C97.7,0.3,98,0,98.4,0c0.4,0,0.6,0.3,0.7,0.7v19c0,0.4-0.4,0.7-0.8,0.7c-0.4,0-0.6-0.3-0.7-0.7V0.7z
			"/>
		<path class="st3" d="M116,6.8v12.9c0,0.4-0.4,0.7-0.8,0.6c-0.3,0-0.6-0.3-0.6-0.6v-2.1c-1.2,1.8-3.2,2.8-5.4,2.8
			c-3.8,0-6.8-3.2-6.8-7.1s3-7.1,6.8-7.1c2.1,0,4.1,1.1,5.4,2.8V6.8c0-0.4,0.4-0.7,0.8-0.6C115.7,6.2,115.9,6.4,116,6.8z
			 M114.6,13.2c0-3.2-2.4-5.8-5.4-5.8s-5.4,2.6-5.4,5.8s2.4,5.7,5.4,5.7S114.6,16.4,114.6,13.2z"/>
		<path class="st3" d="M120.1,13.6V0.7c0-0.4,0.4-0.7,0.8-0.7c0.4,0,0.6,0.3,0.7,0.7v8.2c1.3-1.8,3.3-2.8,5.5-2.8
			c3.9,0,6.9,3.2,6.9,7.2c0.1,3.9-3,7.1-6.9,7.1c0,0,0,0,0,0c-2.2,0-4.2-1-5.5-2.8v2.1c0,0.4-0.4,0.7-0.8,0.7
			c-0.4,0-0.6-0.3-0.7-0.7L120.1,13.6z M121.6,13.3c-0.1,3,2.2,5.6,5.3,5.7c3,0.1,5.6-2.2,5.7-5.3c0-0.1,0-0.3,0-0.4
			c0-3.2-2.4-5.7-5.5-5.7c-3,0.1-5.4,2.5-5.5,5.5L121.6,13.3z"/>
		<path class="st3" d="M137.1,17.4c0.2-0.3,0.7-0.3,1-0.1c0,0,0,0,0,0c1,0.7,2.6,1.7,4.4,1.7c1,0,1.9-0.3,2.7-0.9
			c0.6-0.4,1-1,1.1-1.7c0-0.7-0.3-1.1-1-1.8c-0.6-0.5-1.6-0.8-3-1l-0.1,0c-1.3-0.2-2.4-0.5-3.2-1.1c-0.9-0.5-1.5-1.5-1.5-2.6
			c0-1.1,0.6-2.2,1.5-2.8c1-0.7,2.3-1,3.5-1c1.8,0,3.2,0.8,4.3,1.5c0.3,0.2,0.4,0.7,0.2,1c-0.2,0.3-0.6,0.4-1,0.2
			c-1-0.7-2.1-1.4-3.5-1.4c-1,0-1.9,0.2-2.7,0.8c-0.5,0.4-0.9,1-0.9,1.7c0,0.6,0.3,1.1,0.8,1.4c0.9,0.5,1.9,0.9,2.9,1h0.1
			c1.2,0.2,2.4,0.6,3.5,1.2c1,0.6,1.6,1.7,1.6,2.9c0,1.2-0.7,2.2-1.6,2.9c-1,0.8-2.3,1.2-3.6,1.1c-1.9-0.1-3.8-0.8-5.3-2
			C136.9,18.1,136.8,17.7,137.1,17.4C137,17.4,137.1,17.4,137.1,17.4z"/>
		<path class="st3" d="M42.7,8c0.5-0.6,1.1-1,1.8-1.3c0.7-0.3,1.4-0.5,2.2-0.5c0.5,0,1.1,0.1,1.5,0.5c0.3,0.3,0.5,0.7,0.5,1.1
			c0,0.4-0.2,0.8-0.5,1.1c-0.3,0.3-0.7,0.5-1.1,0.5c-1.8,0.2-4.4,2-4.4,4.5v5.7c0,0.9-0.7,1.6-1.6,1.6c-0.4,0-0.9-0.2-1.1-0.5
			c-0.3-0.3-0.5-0.7-0.5-1.1V7.7c0-0.4,0.2-0.8,0.5-1.1c0.4-0.3,0.8-0.4,1.2-0.4c0.4,0,0.8,0.2,1.1,0.5c0.3,0.3,0.5,0.7,0.5,1.1V8z"
			/>
		<path class="st3" d="M62.2,13.2c0,0.4-0.1,0.8-0.4,1c-0.3,0.3-0.7,0.5-1.1,0.5h-9.5c0.1,0.8,0.5,1.4,1,1.9
			c0.7,0.8,1.7,1.3,2.8,1.4c1.1,0.2,2.2-0.1,3.1-0.7c0.3-0.3,0.8-0.5,1.2-0.5c0.4,0,0.8,0.1,1,0.4c0.5,0.5,0.6,1.3,0.1,1.8
			c0,0-0.1,0.1-0.1,0.1c-1.4,1.3-3.3,2-5.2,1.9c-2,0-3.9-0.8-5.2-2.3c-1.4-1.4-2.1-3.3-2.2-5.3c0-2,0.7-3.9,2.2-5.3
			C51.3,6.8,53.1,6,55,6c1.9-0.1,3.7,0.7,5,2c1.4,1.3,2.2,3.1,2.3,5L62.2,13.2L62.2,13.2z M55,8.9c-1,0-2,0.4-2.7,1
			c-0.6,0.5-1.1,1.3-1.3,2.1h8.4c-0.2-0.8-0.7-1.5-1.4-2C57.2,9.4,56.1,9,55,8.9"/>
		<path class="st3" d="M77.2,19.4c0,0.4-0.2,0.8-0.5,1.1c-0.3,0.3-0.7,0.5-1.1,0.5c-0.8,0-1.4-0.6-1.6-1.3C72.8,20.6,71.4,21,70,21
			c-1.9,0-3.8-0.8-5.1-2.2c-1.4-1.4-2.2-3.3-2.1-5.3c0-2,0.7-3.9,2.1-5.3C66.1,6.8,68,6,70,6c1.4,0,2.8,0.4,4,1.3V1.7
			c0-0.4,0.2-0.8,0.5-1.1c0.3-0.3,0.7-0.5,1.1-0.5c0.4,0,0.8,0.2,1.1,0.5c0.3,0.3,0.5,0.7,0.5,1.1L77.2,19.4L77.2,19.4z M70,17.8
			c1.1,0,2.1-0.5,2.8-1.3c1.6-1.7,1.6-4.3,0-5.9c-0.7-0.8-1.7-1.3-2.8-1.3c-1.1,0-2.1,0.4-2.8,1.3c-1.6,1.7-1.6,4.3,0,5.9
			C67.9,17.3,69,17.8,70,17.8"/>
		<path class="st3" d="M82,1.7v0.6c0,0.5-0.2,0.9-0.5,1.2C81.2,3.9,80.8,4,80.4,4c-0.4,0-0.8-0.2-1.1-0.5c-0.3-0.3-0.5-0.8-0.5-1.2
			V1.7c0-0.4,0.2-0.8,0.5-1.1c0.3-0.3,0.7-0.5,1.1-0.5c0.4,0,0.8,0.2,1.1,0.5C81.8,0.9,82,1.3,82,1.7 M79.3,6.6
			c0.3-0.3,0.7-0.5,1.1-0.5c0.4,0,0.8,0.2,1.1,0.5C81.8,6.9,82,7.3,82,7.8v11.7c0,0.4-0.2,0.8-0.5,1.1c-0.3,0.3-0.7,0.5-1.1,0.5
			c-0.4,0-0.8-0.2-1.1-0.5c-0.3-0.3-0.5-0.7-0.5-1.1V7.8C78.8,7.3,78.9,6.9,79.3,6.6"/>
		<path class="st3" d="M93.4,7.7c0.3,0.2,0.6,0.6,0.6,1c0.1,0.4,0,0.8-0.2,1.2c-0.2,0.3-0.6,0.6-1,0.6c-0.4,0.1-0.8,0-1.2-0.2
			c-1.1-0.7-2-1.1-2.7-1.1c-0.6,0-1.3,0.2-1.8,0.6c-0.3,0.2-0.5,0.4-0.5,0.6c0,0.1,0,0.3,0.1,0.4c0.1,0.1,0.2,0.2,0.3,0.2
			c0.7,0.4,1.4,0.7,2.2,0.7l0,0c1,0.2,2,0.5,2.9,0.9c0.8,0.3,1.5,0.9,1.9,1.7c0.4,0.6,0.6,1.3,0.6,2.1c0,1.4-0.7,2.7-1.8,3.4
			C91.8,20.6,90.4,21,89,21c-1.8,0-3.6-0.7-5.3-2.1c-0.3-0.3-0.5-0.6-0.6-1c-0.1-0.8,0.5-1.6,1.4-1.7c0.4,0,0.8,0.1,1.1,0.3
			c0.9,0.8,2.1,1.3,3.3,1.3c0.7,0,1.4-0.2,2-0.6c0.3-0.3,0.6-0.6,0.6-0.8c0-0.2,0-0.3-0.1-0.4c0-0.1-0.2-0.2-0.4-0.3
			c-0.7-0.5-1.6-0.7-2.4-0.8l0,0c-1-0.1-1.9-0.4-2.7-0.9c-0.8-0.4-1.4-1-1.9-1.7c-0.3-0.6-0.5-1.2-0.5-1.8c0-1.3,0.7-2.6,1.8-3.3
			C86.3,6.4,87.6,6,88.9,6C90.3,6.1,91.8,6.6,93.4,7.7"/>
	</g>
</g>
</svg>
